<svg width="299" height="103" viewBox="0 0 299 103" fill="none" xmlns="http://www.w3.org/2000/svg">
<path d="M298.819 26.6807L282.989 62.3207H278.479L283.659 50.6507L273.059 26.6807H277.899L286.149 46.3207L294.309 26.6807H298.819Z" fill="#161919"/>
<path d="M73.74 81.9904C73.25 81.9904 72.75 81.8204 72.34 81.4804C71.4 80.7004 71.27 79.3104 72.04 78.3604C88.71 58.0704 92.33 32.6304 89.52 21.8304C89.38 21.3104 88.96 20.8804 88.41 20.7204C65.17 13.8104 58.43 9.42039 54.4 6.79039C51.78 5.09039 50.99 4.57039 46.92 4.57039C43.73 4.57039 42.53 5.45039 39.9 7.39039C37.91 8.86039 35.17 10.8704 30.58 13.0804C29.48 13.6104 28.16 13.1404 27.64 12.0404C27.11 10.9404 27.58 9.62039 28.68 9.09039C32.91 7.06039 35.34 5.27039 37.3 3.83039C40.09 1.78039 42.29 0.150391 46.93 0.150391C52.09 0.150391 53.69 1.05039 56.81 3.08039C60.39 5.41039 67.04 9.74039 89.68 16.4804C91.7 17.0804 93.28 18.7104 93.8 20.7204C96.93 32.7504 93.3 59.4704 75.45 81.1904C75.01 81.7204 74.38 82.0004 73.75 82.0004L73.74 81.9904Z" fill="#161919"/>
<path d="M47.2091 102.86C46.1891 102.86 45.1691 102.62 44.2391 102.15C-0.130901 79.5701 -1.8309 35.1201 1.0791 21.3301C1.5791 18.9601 3.4391 17.1201 5.8191 16.6401C11.0391 15.6001 16.4491 14.4201 20.6891 12.9101C21.8291 12.5001 23.0991 13.1001 23.5091 14.2601C23.9191 15.4101 23.3191 16.6801 22.1691 17.0901C17.6591 18.6901 12.0591 19.9101 6.6891 20.9801C6.0391 21.1101 5.5391 21.6001 5.4091 22.2401C2.6891 35.1701 4.3391 76.8701 46.2491 98.1801C46.8691 98.5001 47.5991 98.4901 48.1991 98.1801C56.0691 94.0101 59.7191 91.3201 65.9591 85.9501C66.8891 85.1501 68.2291 85.1001 69.0791 85.9801C69.9291 86.8501 69.9691 88.3101 69.0491 89.1101C62.9891 94.4101 59.2291 96.8101 50.2491 102.1C49.3291 102.64 48.2591 102.85 47.2091 102.85V102.86Z" fill="#161919"/>
<path d="M47.5886 91.3205C46.5986 91.3205 45.6086 91.0705 44.7186 90.5805C41.0186 88.5405 39.0686 86.0505 38.9886 85.9505C38.2386 84.9805 38.4186 83.5905 39.3786 82.8405C40.3386 82.0905 41.7286 82.2705 42.4786 83.2305C42.4786 83.2305 43.9886 85.1205 46.8386 86.6905C47.2986 86.9405 47.8786 86.9805 48.3386 86.6905C69.1886 73.9305 80.2986 46.9005 79.9586 30.0605C79.9486 29.3505 79.4786 28.7405 78.7886 28.5505C71.6186 26.5405 54.5486 19.2005 48.0286 15.9805C47.5586 15.7505 47.0086 15.7605 46.5486 16.0205C39.7586 19.7005 25.3086 26.4905 15.4286 29.0305C14.7286 29.2105 14.2486 29.8705 14.2786 30.6205C14.8686 49.0005 20.9186 60.4105 25.3886 66.2805C25.3886 61.2605 25.3186 42.1005 25.3186 42.1005C25.1486 34.3405 33.4786 25.6305 47.2186 25.0705C56.0886 24.7105 61.9486 29.0405 64.6586 31.6505C68.0186 34.8805 70.0186 38.7705 70.0186 42.0505C70.0186 43.2705 69.0286 44.2605 67.8086 44.2605C66.5886 44.2605 65.5986 43.2705 65.5986 42.0505C65.5986 40.5105 64.5486 37.7005 61.5986 34.8505C59.3886 32.7205 54.5786 29.2105 47.3886 29.5005C36.6686 29.9305 29.5886 36.3205 29.7186 42.0105V48.6805C29.7186 53.9905 29.6186 63.9205 29.6986 68.0705C29.7286 69.7505 29.3386 71.1705 27.7686 71.7605C26.2086 72.3405 24.4986 71.8805 23.4386 70.5905C18.6586 64.7805 10.5386 51.8805 9.85863 30.7805C9.76863 27.9305 11.6086 25.4605 14.3286 24.7605C24.1786 22.2305 38.8786 15.1605 44.4486 12.1405C46.1686 11.2105 48.2286 11.1605 49.9786 12.0305C56.1986 15.1005 73.1486 22.4005 79.9786 24.3105C82.5586 25.0305 84.3186 27.3205 84.3786 29.9905C84.7986 50.7405 71.2186 80.0705 50.3386 90.6705C49.4686 91.1105 48.5286 91.3305 47.5886 91.3305V91.3205Z" fill="#161919"/>
<path d="M46.6489 76.1207C44.9889 76.1207 43.3189 75.7807 41.7889 75.0707C38.4989 73.5307 36.2989 70.5907 36.0589 67.4007C35.9689 66.1807 36.8789 65.1207 38.0889 65.0307C39.3189 64.9307 40.3589 65.8507 40.4589 67.0707C40.5789 68.6207 41.8589 70.2207 43.6489 71.0507C46.6089 72.4307 50.5189 71.5307 52.3789 69.0507C54.2289 66.5707 53.7589 62.5207 51.4289 60.7307C50.3089 59.8707 48.8189 59.4007 47.2289 58.9007C45.7589 58.4407 44.2289 57.9607 42.7789 57.1207C39.5089 55.2307 37.3189 51.7607 37.0589 48.0907C36.7889 44.2207 38.6789 40.4107 41.8789 38.4007C44.9089 36.4907 48.8989 36.3107 52.2689 37.9207C55.4089 39.4207 57.8389 42.4207 59.1189 46.3607C59.4989 47.5207 58.8589 48.7707 57.7089 49.1507C56.5489 49.5407 55.3089 48.8907 54.9289 47.7307C54.2889 45.7607 52.9789 43.1607 50.3789 41.9107C48.3789 40.9607 45.9689 41.0507 44.2289 42.1407C42.4189 43.2807 41.3089 45.5407 41.4689 47.7707C41.6289 49.9707 43.0089 52.1307 44.9989 53.2807C46.0289 53.8807 47.2589 54.2607 48.5589 54.6707C50.4389 55.2607 52.3889 55.8707 54.1289 57.2107C58.3889 60.4907 59.2289 67.2607 55.9289 71.7007C53.8189 74.5307 50.2489 76.1207 46.6589 76.1207H46.6489Z" fill="#161919"/>
<path d="M128.909 91.3595C126.939 90.5495 125.359 89.3494 124.179 87.7694C122.999 86.1794 122.379 84.2695 122.309 82.0395H131.139C131.269 83.2995 131.709 84.2695 132.449 84.9295C133.189 85.5895 134.159 85.9295 135.359 85.9295C136.559 85.9295 137.559 85.6495 138.269 85.0795C138.979 84.5095 139.339 83.7295 139.339 82.7295C139.339 81.8895 139.059 81.1895 138.489 80.6395C137.919 80.0895 137.229 79.6394 136.399 79.2794C135.579 78.9194 134.399 78.5195 132.879 78.0695C130.679 77.3895 128.879 76.7094 127.489 76.0294C126.099 75.3494 124.899 74.3494 123.899 73.0194C122.899 71.6894 122.399 69.9595 122.399 67.8295C122.399 64.6595 123.549 62.1694 125.849 60.3794C128.149 58.5794 131.139 57.6895 134.829 57.6895C138.519 57.6895 141.609 58.5894 143.909 60.3794C146.209 62.1794 147.439 64.6794 147.599 67.8794H138.619C138.559 66.7794 138.149 65.9094 137.409 65.2794C136.659 64.6494 135.709 64.3295 134.549 64.3295C133.549 64.3295 132.739 64.5994 132.119 65.1294C131.499 65.6594 131.199 66.4295 131.199 67.4395C131.199 68.5395 131.719 69.3995 132.749 70.0095C133.789 70.6295 135.399 71.2895 137.599 71.9995C139.799 72.7395 141.589 73.4595 142.959 74.1395C144.329 74.8195 145.519 75.8094 146.529 77.0994C147.529 78.3894 148.029 80.0594 148.029 82.0994C148.029 84.1394 147.539 85.8095 146.549 87.3895C145.559 88.9795 144.129 90.2395 142.249 91.1795C140.369 92.1195 138.159 92.5894 135.599 92.5894C133.039 92.5894 130.879 92.1894 128.899 91.3794L128.909 91.3595Z" fill="#161919"/>
<path d="M155.478 71.3098C156.528 69.2098 157.958 67.5898 159.778 66.4598C161.588 65.3298 163.618 64.7598 165.848 64.7598C167.758 64.7598 169.428 65.1498 170.868 65.9198C172.308 66.6998 173.418 67.7198 174.188 68.9798V65.1498H182.488V92.2298H174.188V88.3998C173.378 89.6598 172.258 90.6798 170.818 91.4598C169.378 92.2398 167.698 92.6298 165.798 92.6298C163.598 92.6298 161.588 92.0598 159.778 90.9098C157.968 89.7598 156.538 88.1298 155.478 86.0098C154.428 83.8898 153.898 81.4398 153.898 78.6598C153.898 75.8798 154.428 73.4298 155.478 71.3298V71.3098ZM172.468 73.7898C171.318 72.5898 169.918 71.9898 168.268 71.9898C166.618 71.9898 165.218 72.5798 164.068 73.7598C162.918 74.9398 162.348 76.5698 162.348 78.6398C162.348 80.7098 162.918 82.3498 164.068 83.5698C165.218 84.7898 166.618 85.3898 168.268 85.3898C169.918 85.3898 171.318 84.7898 172.468 83.5898C173.618 82.3898 174.188 80.7598 174.188 78.6898C174.188 76.6198 173.618 74.9898 172.468 73.7898Z" fill="#161919"/>
<path d="M204.528 72.0399H200.058V92.2299H191.758V72.0399H188.748V65.1499H191.758V64.3699C191.758 61.0399 192.708 58.5099 194.618 56.7699C196.528 55.0399 199.328 54.1699 203.018 54.1699C203.628 54.1699 204.088 54.1899 204.378 54.2199V61.2599C202.788 61.1599 201.678 61.3899 201.028 61.9399C200.378 62.4899 200.058 63.4799 200.058 64.8999V65.1399H204.528V72.0299V72.0399Z" fill="#161919"/>
<path d="M236.229 80.6798H217.449C217.579 82.3598 218.119 83.6498 219.079 84.5398C220.029 85.4298 221.209 85.8698 222.599 85.8698C224.669 85.8698 226.109 84.9998 226.919 83.2498H235.749C235.299 85.0298 234.479 86.6298 233.299 88.0598C232.119 89.4798 230.639 90.5998 228.859 91.4098C227.079 92.2198 225.089 92.6198 222.889 92.6198C220.239 92.6198 217.869 92.0498 215.799 90.9198C213.729 89.7898 212.109 88.1698 210.949 86.0698C209.789 83.9698 209.199 81.5098 209.199 78.6898C209.199 75.8698 209.779 73.4198 210.919 71.3098C212.069 69.2098 213.679 67.5898 215.749 66.4598C217.819 65.3298 220.199 64.7598 222.879 64.7598C225.559 64.7598 227.829 65.3098 229.869 66.4098C231.909 67.5098 233.499 69.0798 234.649 71.1198C235.799 73.1598 236.369 75.5398 236.369 78.2498C236.369 79.0298 236.319 79.8398 236.229 80.6798ZM227.879 76.0698C227.879 74.6498 227.389 73.5098 226.419 72.6698C225.449 71.8298 224.239 71.4098 222.779 71.4098C221.319 71.4098 220.209 71.8198 219.259 72.6198C218.309 73.4298 217.709 74.5798 217.489 76.0698H227.879Z" fill="#161919"/>
<path d="M143.02 35.5008C141.12 37.2008 138.21 38.0408 134.31 38.0408H127.88V50.9108H123.51V20.0908H134.31C138.08 20.0908 140.95 20.9308 142.92 22.6108C144.89 24.2908 145.87 26.4608 145.87 29.1108C145.87 31.7608 144.92 33.8108 143.02 35.5008ZM139.69 33.2708C140.84 32.3008 141.42 30.9108 141.42 29.1108C141.42 25.3108 139.05 23.4108 134.32 23.4108H127.89V34.7308H134.32C136.75 34.7308 138.54 34.2408 139.69 33.2708Z" fill="#161919"/>
<path d="M160.388 27.3805C161.808 26.6105 163.548 26.2305 165.598 26.2305V30.3905H164.448C159.558 30.3905 157.108 32.8405 157.108 37.7305V50.9105H152.738V26.6805H157.108V30.6205C157.878 29.2405 158.968 28.1605 160.398 27.3905L160.388 27.3805Z" fill="#161919"/>
<path d="M175.479 26.6807V50.9107H171.109V26.6807H175.479Z" fill="#161919"/>
<path d="M193.18 47.2007L201.34 26.6807H205.99L195.67 50.9107H190.58L180.27 26.6807H184.97L193.17 47.2007H193.18Z" fill="#161919"/>
<path d="M211.749 32.1805C212.839 30.3105 214.329 28.8605 216.239 27.8205C218.139 26.7905 220.259 26.2705 222.599 26.2705C224.939 26.2705 226.899 26.7305 228.599 27.6405C230.289 28.5505 231.559 29.7005 232.389 31.0905V26.6705H236.799V50.9005H232.389V46.3905C231.529 47.8105 230.239 48.9805 228.529 49.9105C226.819 50.8405 224.829 51.3005 222.559 51.3005C220.289 51.3005 218.109 50.7705 216.229 49.7105C214.339 48.6505 212.859 47.1605 211.769 45.2405C210.679 43.3205 210.139 41.1405 210.139 38.7005C210.139 36.2605 210.679 34.0505 211.769 32.1805H211.749ZM231.179 33.9705C230.379 32.6105 229.299 31.5705 227.939 30.8505C226.579 30.1305 225.089 29.7705 223.449 29.7705C221.809 29.7705 220.329 30.1205 218.989 30.8305C217.649 31.5405 216.579 32.5705 215.769 33.9205C214.969 35.2805 214.569 36.8705 214.569 38.7005C214.569 40.5305 214.969 42.1705 215.769 43.5405C216.569 44.9105 217.639 45.9605 218.989 46.6805C220.329 47.4005 221.819 47.7605 223.449 47.7605C225.079 47.7605 226.579 47.4005 227.939 46.6805C229.299 45.9605 230.379 44.9105 231.179 43.5405C231.979 42.1705 232.379 40.5705 232.379 38.7405C232.379 36.9105 231.979 35.3205 231.179 33.9605V33.9705Z" fill="#161919"/>
<path d="M245.62 32.1805C246.71 30.3105 248.22 28.8605 250.15 27.8205C252.09 26.7905 254.3 26.2705 256.8 26.2705C260.03 26.2705 262.69 26.9905 264.79 28.4405C266.88 29.8805 268.27 31.8905 268.94 34.4505H264.24C263.79 32.9805 262.92 31.8105 261.63 30.9605C260.33 30.1105 258.73 29.6805 256.81 29.6805C254.31 29.6805 252.3 30.4705 250.76 32.0505C249.22 33.6305 248.46 35.8605 248.46 38.7505C248.46 41.6405 249.23 43.9205 250.76 45.5205C252.29 47.1105 254.31 47.9105 256.81 47.9105C258.73 47.9105 260.33 47.5005 261.61 46.6705C262.89 45.8405 263.77 44.6605 264.25 43.1305H268.95C268.25 45.6105 266.84 47.5905 264.73 49.0805C262.62 50.5705 259.98 51.3105 256.81 51.3105C254.31 51.3105 252.1 50.7905 250.16 49.7605C248.23 48.7305 246.71 47.2705 245.63 45.3805C244.54 43.4905 244 41.2805 244 38.7505C244 36.2205 244.54 34.0605 245.63 32.1805H245.62Z" fill="#161919"/>
<path d="M170.99 22.6701C170.34 22.0701 170.01 21.3401 170.01 20.4701C170.01 19.6001 170.34 18.8701 170.99 18.2701C171.64 17.6701 172.43 17.3701 173.37 17.3701C174.31 17.3701 175.04 17.6701 175.67 18.2701C176.3 18.8701 176.62 19.6001 176.62 20.4701C176.62 21.3401 176.3 22.0701 175.67 22.6701C175.04 23.2701 174.27 23.5701 173.37 23.5701C172.47 23.5701 171.64 23.2701 170.99 22.6701Z" fill="#161919"/>
</svg>
