<?xml version="1.0" encoding="UTF-8"?>
<svg xmlns="http://www.w3.org/2000/svg" version="1.1" viewBox="0 0 168 210">
  <defs>
    <style>
      .cls-1 {
        fill: #fcfcfc;
      }

      .cls-2 {
        display: none;
      }

      .cls-3 {
        fill: #161919;
      }

      .cls-4 {
        fill: #687272;
      }
    </style>
  </defs>
  <!-- Generator: Adobe Illustrator 28.7.0, SVG Export Plug-In . SVG Version: 1.2.0 Build 136)  -->
  <g>
    <g id="White" class="cls-2">
      <g>
        <g>
          <path class="cls-1" d="M111.81,105.16c-.51,0-1.01-.17-1.43-.52-.96-.8-1.1-2.22-.31-3.19,17.05-20.75,20.75-46.77,17.88-57.82-.14-.53-.57-.97-1.13-1.14-23.77-7.07-30.67-11.56-34.78-14.24-2.68-1.74-3.48-2.27-7.65-2.27-3.27,0-4.49.9-7.18,2.88-2.04,1.5-4.83,3.56-9.54,5.82-1.13.54-2.47.06-3.01-1.07-.54-1.13-.06-2.48,1.06-3.02,4.32-2.07,6.81-3.91,8.81-5.38,2.85-2.1,5.11-3.76,9.85-3.76,5.28,0,6.91.92,10.11,3,3.66,2.38,10.47,6.82,33.61,13.7,2.07.62,3.68,2.28,4.22,4.34,3.2,12.31-.51,39.63-18.76,61.84-.45.54-1.09.82-1.74.82Z"/>
          <path class="cls-1" d="M84.67,126.51c-1.04,0-2.08-.24-3.04-.73-45.38-23.08-47.11-68.54-44.14-82.65.51-2.43,2.41-4.31,4.84-4.8,5.33-1.07,10.87-2.27,15.21-3.81,1.17-.42,2.46.2,2.88,1.38.42,1.18-.2,2.47-1.38,2.89-4.61,1.64-10.33,2.88-15.83,3.98-.66.13-1.17.64-1.31,1.29-2.79,13.22-1.09,55.87,41.77,77.67.63.32,1.38.32,2,0,8.05-4.26,11.78-7.02,18.16-12.51.95-.81,2.32-.86,3.19.03.87.89.91,2.38-.03,3.2-6.2,5.42-10.04,7.87-19.22,13.29-.94.56-2.04.77-3.11.77Z"/>
          <path class="cls-1" d="M85.06,114.71c-1.01,0-2.02-.25-2.93-.75-3.78-2.08-5.78-4.63-5.86-4.74-.76-.99-.58-2.41.4-3.18.98-.76,2.4-.59,3.17.4,0,0,1.55,1.93,4.46,3.54.47.26,1.06.3,1.54,0,21.33-13.05,32.69-40.69,32.34-57.92-.01-.73-.49-1.35-1.2-1.54-7.34-2.05-24.79-9.57-31.46-12.85-.48-.24-1.04-.22-1.52.04-6.94,3.77-21.73,10.71-31.83,13.31-.72.18-1.2.85-1.18,1.63.6,18.8,6.79,30.46,11.36,36.47,0-5.13-.07-24.73-.07-24.73-.17-7.93,8.34-16.85,22.4-17.42,9.07-.36,15.07,4.06,17.84,6.73,3.43,3.31,5.48,7.28,5.48,10.63,0,1.25-1.01,2.26-2.26,2.26s-2.26-1.01-2.26-2.26c0-1.58-1.07-4.45-4.1-7.37-2.26-2.17-7.18-5.77-14.53-5.48-10.97.44-18.2,6.97-18.07,12.79v6.82c0,5.43-.11,15.59-.03,19.83.03,1.71-.37,3.18-1.98,3.77-1.6.6-3.34.13-4.43-1.2-4.89-5.94-13.2-19.14-13.89-40.71-.09-2.91,1.79-5.44,4.57-6.16,10.07-2.59,25.1-9.81,30.8-12.91,1.76-.95,3.87-1,5.65-.12,6.37,3.14,23.7,10.6,30.68,12.55,2.64.74,4.44,3.07,4.5,5.81.43,21.22-13.46,51.22-34.82,62.05-.89.45-1.85.67-2.81.67Z"/>
          <path class="cls-1" d="M84.1,99.16c-1.7,0-3.4-.35-4.97-1.08-3.37-1.57-5.61-4.58-5.86-7.84-.09-1.25.84-2.33,2.08-2.43,1.26-.1,2.33.84,2.42,2.09.12,1.58,1.43,3.22,3.26,4.07,3.03,1.41,7.03.5,8.92-2.05,1.89-2.54,1.41-6.67-.97-8.51-1.14-.88-2.67-1.36-4.3-1.87-1.51-.47-3.06-.96-4.55-1.82-3.34-1.94-5.59-5.48-5.85-9.24-.28-3.96,1.65-7.85,4.93-9.91,3.1-1.95,7.17-2.14,10.63-.49,3.21,1.53,5.69,4.6,7,8.63.39,1.19-.26,2.47-1.45,2.85-1.18.39-2.46-.26-2.84-1.45-.65-2.01-1.99-4.67-4.65-5.95-2.04-.98-4.51-.88-6.29.24-1.85,1.16-2.98,3.48-2.82,5.75.16,2.25,1.57,4.46,3.61,5.64,1.05.61,2.31,1.01,3.64,1.42,1.93.6,3.92,1.23,5.7,2.6,4.36,3.36,5.22,10.28,1.84,14.82-2.16,2.9-5.81,4.52-9.48,4.52Z"/>
        </g>
        <g>
          <path class="cls-1" d="M33.22,144.06c-1.42,1.26-3.58,1.9-6.49,1.9h-4.79v9.59h-3.25v-22.97h8.05c2.81,0,4.95.63,6.42,1.88,1.47,1.25,2.2,2.87,2.2,4.84s-.71,3.5-2.13,4.76ZM30.73,142.39c.86-.73,1.29-1.76,1.29-3.1,0-2.83-1.76-4.25-5.29-4.25h-4.79v8.44h4.79c1.81,0,3.15-.36,4-1.09Z"/>
          <path class="cls-1" d="M46.16,138.01c1.06-.57,2.35-.86,3.88-.86v3.1h-.86c-3.65,0-5.47,1.82-5.47,5.47v9.82h-3.25v-18.06h3.25v2.93c.57-1.03,1.39-1.83,2.45-2.41Z"/>
          <path class="cls-1" d="M57.4,137.48v18.06h-3.25v-18.06h3.25Z"/>
          <path class="cls-1" d="M70.59,152.77l6.08-15.29h3.47l-7.69,18.06h-3.79l-7.69-18.06h3.5l6.11,15.29Z"/>
          <path class="cls-1" d="M84.43,141.59c.81-1.39,1.92-2.48,3.34-3.25,1.42-.77,3-1.15,4.74-1.15s3.2.34,4.47,1.02c1.26.68,2.2,1.54,2.82,2.57v-3.3h3.29v18.06h-3.29v-3.36c-.64,1.05-1.6,1.93-2.88,2.62s-2.76,1.04-4.45,1.04-3.31-.4-4.72-1.19c-1.41-.79-2.51-1.9-3.32-3.33-.81-1.43-1.22-3.05-1.22-4.88s.4-3.47,1.22-4.86ZM98.91,142.92c-.6-1.01-1.4-1.79-2.41-2.32s-2.13-.81-3.34-.81-2.32.26-3.32.79c-1,.53-1.8,1.3-2.4,2.31-.6,1.01-.89,2.2-.89,3.56s.3,2.59.89,3.61c.6,1.02,1.4,1.8,2.4,2.34,1,.54,2.11.81,3.32.81s2.33-.27,3.34-.81c1.01-.54,1.82-1.32,2.41-2.34.6-1.02.89-2.21.89-3.58s-.3-2.55-.89-3.56Z"/>
          <path class="cls-1" d="M109.67,141.59c.81-1.39,1.94-2.48,3.38-3.25,1.44-.77,3.09-1.15,4.95-1.15,2.41,0,4.39.54,5.95,1.61,1.56,1.08,2.59,2.57,3.09,4.48h-3.5c-.33-1.1-.98-1.97-1.95-2.6-.97-.64-2.16-.96-3.59-.96-1.86,0-3.36.59-4.5,1.76-1.14,1.18-1.72,2.84-1.72,4.99s.57,3.86,1.72,5.04c1.14,1.19,2.65,1.78,4.5,1.78,1.43,0,2.62-.31,3.58-.92.95-.62,1.61-1.49,1.97-2.64h3.5c-.52,1.85-1.57,3.32-3.15,4.43-1.57,1.11-3.54,1.66-5.9,1.66-1.86,0-3.51-.38-4.95-1.15-1.44-.77-2.57-1.86-3.38-3.26-.81-1.41-1.22-3.05-1.22-4.94s.41-3.5,1.22-4.89Z"/>
          <path class="cls-1" d="M149.32,137.02l-11.8,26.56h-3.36l3.86-8.7-7.9-17.86h3.61l6.15,14.63,6.08-14.63h3.36Z"/>
          <path class="cls-1" d="M54.06,134.5c-.48-.45-.73-.99-.73-1.64s.24-1.19.73-1.64c.48-.45,1.08-.67,1.77-.67s1.25.22,1.72.67c.47.45.71.99.71,1.64s-.24,1.19-.71,1.64c-.47.45-1.04.67-1.72.67s-1.29-.22-1.77-.67Z"/>
        </g>
        <g>
          <path class="cls-1" d="M47.31,187.61c-1.45-.59-2.61-1.48-3.48-2.64-.87-1.17-1.33-2.57-1.38-4.22h6.5c.09.93.42,1.64.96,2.13.55.49,1.26.73,2.14.73s1.62-.21,2.14-.63c.52-.42.79-.99.79-1.73,0-.62-.21-1.13-.63-1.54-.42-.4-.93-.74-1.54-1-.61-.26-1.47-.56-2.59-.89-1.62-.5-2.94-1-3.96-1.5-1.02-.5-1.91-1.24-2.64-2.21-.74-.98-1.11-2.25-1.11-3.82,0-2.33.85-4.16,2.54-5.48,1.69-1.32,3.89-1.98,6.61-1.98s4.99.66,6.68,1.98c1.69,1.32,2.6,3.16,2.71,5.52h-6.61c-.05-.81-.35-1.45-.89-1.91-.55-.46-1.25-.7-2.11-.7-.74,0-1.33.2-1.79.59-.45.39-.68.96-.68,1.7,0,.81.38,1.44,1.14,1.89.76.45,1.95.94,3.57,1.46,1.62.55,2.93,1.07,3.95,1.57,1.01.5,1.89,1.23,2.63,2.18.74.95,1.11,2.18,1.11,3.68s-.36,2.73-1.09,3.89c-.73,1.17-1.78,2.1-3.16,2.79s-3.01,1.04-4.89,1.04-3.48-.3-4.93-.89Z"/>
          <path class="cls-1" d="M66.86,172.86c.77-1.55,1.83-2.74,3.16-3.57,1.33-.83,2.82-1.25,4.47-1.25,1.4,0,2.64.29,3.7.86,1.06.57,1.88,1.32,2.45,2.25v-2.82h6.11v19.93h-6.11v-2.82c-.59.93-1.42,1.68-2.48,2.25-1.06.57-2.29.86-3.7.86-1.62,0-3.1-.42-4.43-1.27-1.33-.84-2.39-2.05-3.16-3.61-.77-1.56-1.16-3.36-1.16-5.41s.39-3.85,1.16-5.39ZM79.37,174.68c-.85-.88-1.88-1.32-3.09-1.32s-2.25.43-3.09,1.3c-.85.87-1.27,2.07-1.27,3.59s.42,2.73,1.27,3.63,1.88,1.34,3.09,1.34,2.24-.44,3.09-1.32c.85-.88,1.27-2.08,1.27-3.61s-.42-2.73-1.27-3.61Z"/>
          <path class="cls-1" d="M102.96,173.4h-3.29v14.86h-6.11v-14.86h-2.21v-5.07h2.21v-.57c0-2.45.7-4.32,2.11-5.59,1.4-1.27,3.46-1.91,6.18-1.91.45,0,.79.01,1,.04v5.18c-1.17-.07-1.99.1-2.47.5-.48.41-.71,1.13-.71,2.18v.18h3.29v5.07Z"/>
          <path class="cls-1" d="M126.28,179.75h-13.82c.09,1.24.49,2.18,1.2,2.84.7.66,1.56.98,2.59.98,1.52,0,2.58-.64,3.18-1.93h6.5c-.33,1.31-.93,2.49-1.8,3.54-.87,1.05-1.96,1.87-3.27,2.46-1.31.6-2.77.89-4.39.89-1.95,0-3.69-.42-5.21-1.25-1.52-.83-2.71-2.02-3.57-3.57-.86-1.55-1.29-3.36-1.29-5.43s.42-3.88,1.27-5.43c.85-1.55,2.03-2.74,3.55-3.57,1.52-.83,3.27-1.25,5.25-1.25s3.64.41,5.14,1.21c1.5.81,2.67,1.96,3.52,3.46.84,1.5,1.27,3.25,1.27,5.25,0,.57-.04,1.17-.11,1.79ZM120.14,176.36c0-1.05-.36-1.88-1.07-2.5-.71-.62-1.61-.93-2.68-.93s-1.89.3-2.59.89c-.7.6-1.14,1.44-1.3,2.54h7.64Z"/>
        </g>
      </g>
    </g>
    <g id="Gray" class="cls-2">
      <g>
        <g>
          <path class="cls-4" d="M111.81,105.16c-.51,0-1.01-.17-1.43-.52-.96-.8-1.1-2.22-.31-3.19,17.05-20.75,20.75-46.77,17.88-57.82-.14-.53-.57-.97-1.13-1.14-23.77-7.07-30.67-11.56-34.78-14.24-2.68-1.74-3.48-2.27-7.65-2.27-3.27,0-4.49.9-7.18,2.88-2.04,1.5-4.83,3.56-9.54,5.82-1.13.54-2.47.06-3.01-1.07-.54-1.13-.06-2.48,1.06-3.02,4.32-2.07,6.81-3.91,8.81-5.38,2.85-2.1,5.11-3.76,9.85-3.76,5.28,0,6.91.92,10.11,3,3.66,2.38,10.47,6.82,33.61,13.7,2.07.62,3.68,2.28,4.22,4.34,3.2,12.31-.51,39.63-18.76,61.84-.45.54-1.09.82-1.74.82Z"/>
          <path class="cls-4" d="M84.67,126.51c-1.04,0-2.08-.24-3.04-.73-45.38-23.08-47.11-68.54-44.14-82.65.51-2.43,2.41-4.31,4.84-4.8,5.33-1.07,10.87-2.27,15.21-3.81,1.17-.42,2.46.2,2.88,1.38.42,1.18-.2,2.47-1.38,2.89-4.61,1.64-10.33,2.88-15.83,3.98-.66.13-1.17.64-1.31,1.29-2.79,13.22-1.09,55.87,41.77,77.67.63.32,1.38.32,2,0,8.05-4.26,11.78-7.02,18.16-12.51.95-.81,2.32-.86,3.19.03.87.89.91,2.38-.03,3.2-6.2,5.42-10.04,7.87-19.22,13.29-.94.56-2.04.77-3.11.77Z"/>
          <path class="cls-4" d="M85.06,114.71c-1.01,0-2.02-.25-2.93-.75-3.78-2.08-5.78-4.63-5.86-4.74-.76-.99-.58-2.41.4-3.18.98-.76,2.4-.59,3.17.4,0,0,1.55,1.93,4.46,3.54.47.26,1.06.3,1.54,0,21.33-13.05,32.69-40.69,32.34-57.92-.01-.73-.49-1.35-1.2-1.54-7.34-2.05-24.79-9.57-31.46-12.85-.48-.24-1.04-.22-1.52.04-6.94,3.77-21.73,10.71-31.83,13.31-.72.18-1.2.85-1.18,1.63.6,18.8,6.79,30.46,11.36,36.47,0-5.13-.07-24.73-.07-24.73-.17-7.93,8.34-16.85,22.4-17.42,9.07-.36,15.07,4.06,17.84,6.73,3.43,3.31,5.48,7.28,5.48,10.63,0,1.25-1.01,2.26-2.26,2.26s-2.26-1.01-2.26-2.26c0-1.58-1.07-4.45-4.1-7.37-2.26-2.17-7.18-5.77-14.53-5.48-10.97.44-18.2,6.97-18.07,12.79v6.82c0,5.43-.11,15.59-.03,19.83.03,1.71-.37,3.18-1.98,3.77-1.6.6-3.34.13-4.43-1.2-4.89-5.94-13.2-19.14-13.89-40.71-.09-2.91,1.79-5.44,4.57-6.16,10.07-2.59,25.1-9.81,30.8-12.91,1.76-.95,3.87-1,5.65-.12,6.37,3.14,23.7,10.6,30.68,12.55,2.64.74,4.44,3.07,4.5,5.81.43,21.22-13.46,51.22-34.82,62.05-.89.45-1.85.67-2.81.67Z"/>
          <path class="cls-4" d="M84.1,99.16c-1.7,0-3.4-.35-4.97-1.08-3.37-1.57-5.61-4.58-5.86-7.84-.09-1.25.84-2.33,2.08-2.43,1.26-.1,2.33.84,2.42,2.09.12,1.58,1.43,3.22,3.26,4.07,3.03,1.41,7.03.5,8.92-2.05,1.89-2.54,1.41-6.67-.97-8.51-1.14-.88-2.67-1.36-4.3-1.87-1.51-.47-3.06-.96-4.55-1.82-3.34-1.94-5.59-5.48-5.85-9.24-.28-3.96,1.65-7.85,4.93-9.91,3.1-1.95,7.17-2.14,10.63-.49,3.21,1.53,5.69,4.6,7,8.63.39,1.19-.26,2.47-1.45,2.85-1.18.39-2.46-.26-2.84-1.45-.65-2.01-1.99-4.67-4.65-5.95-2.04-.98-4.51-.88-6.29.24-1.85,1.16-2.98,3.48-2.82,5.75.16,2.25,1.57,4.46,3.61,5.64,1.05.61,2.31,1.01,3.64,1.42,1.93.6,3.92,1.23,5.7,2.6,4.36,3.36,5.22,10.28,1.84,14.82-2.16,2.9-5.81,4.52-9.48,4.52Z"/>
        </g>
        <g>
          <path class="cls-4" d="M33.22,144.06c-1.42,1.26-3.58,1.9-6.49,1.9h-4.79v9.59h-3.25v-22.97h8.05c2.81,0,4.95.63,6.42,1.88,1.47,1.25,2.2,2.87,2.2,4.84s-.71,3.5-2.13,4.76ZM30.73,142.39c.86-.73,1.29-1.76,1.29-3.1,0-2.83-1.76-4.25-5.29-4.25h-4.79v8.44h4.79c1.81,0,3.15-.36,4-1.09Z"/>
          <path class="cls-4" d="M46.16,138.01c1.06-.57,2.35-.86,3.88-.86v3.1h-.86c-3.65,0-5.47,1.82-5.47,5.47v9.82h-3.25v-18.06h3.25v2.93c.57-1.03,1.39-1.83,2.45-2.41Z"/>
          <path class="cls-4" d="M57.4,137.48v18.06h-3.25v-18.06h3.25Z"/>
          <path class="cls-4" d="M70.59,152.77l6.08-15.29h3.47l-7.69,18.06h-3.79l-7.69-18.06h3.5l6.11,15.29Z"/>
          <path class="cls-4" d="M84.43,141.59c.81-1.39,1.92-2.48,3.34-3.25,1.42-.77,3-1.15,4.74-1.15s3.2.34,4.47,1.02c1.26.68,2.2,1.54,2.82,2.57v-3.3h3.29v18.06h-3.29v-3.36c-.64,1.05-1.6,1.93-2.88,2.62s-2.76,1.04-4.45,1.04-3.31-.4-4.72-1.19c-1.41-.79-2.51-1.9-3.32-3.33-.81-1.43-1.22-3.05-1.22-4.88s.4-3.47,1.22-4.86ZM98.91,142.92c-.6-1.01-1.4-1.79-2.41-2.32s-2.13-.81-3.34-.81-2.32.26-3.32.79c-1,.53-1.8,1.3-2.4,2.31-.6,1.01-.89,2.2-.89,3.56s.3,2.59.89,3.61c.6,1.02,1.4,1.8,2.4,2.34,1,.54,2.11.81,3.32.81s2.33-.27,3.34-.81c1.01-.54,1.82-1.32,2.41-2.34.6-1.02.89-2.21.89-3.58s-.3-2.55-.89-3.56Z"/>
          <path class="cls-4" d="M109.67,141.59c.81-1.39,1.94-2.48,3.38-3.25,1.44-.77,3.09-1.15,4.95-1.15,2.41,0,4.39.54,5.95,1.61,1.56,1.08,2.59,2.57,3.09,4.48h-3.5c-.33-1.1-.98-1.97-1.95-2.6-.97-.64-2.16-.96-3.59-.96-1.86,0-3.36.59-4.5,1.76-1.14,1.18-1.72,2.84-1.72,4.99s.57,3.86,1.72,5.04c1.14,1.19,2.65,1.78,4.5,1.78,1.43,0,2.62-.31,3.58-.92.95-.62,1.61-1.49,1.97-2.64h3.5c-.52,1.85-1.57,3.32-3.15,4.43-1.57,1.11-3.54,1.66-5.9,1.66-1.86,0-3.51-.38-4.95-1.15-1.44-.77-2.57-1.86-3.38-3.26-.81-1.41-1.22-3.05-1.22-4.94s.41-3.5,1.22-4.89Z"/>
          <path class="cls-4" d="M149.32,137.02l-11.8,26.56h-3.36l3.86-8.7-7.9-17.86h3.61l6.15,14.63,6.08-14.63h3.36Z"/>
          <path class="cls-4" d="M54.06,134.5c-.48-.45-.73-.99-.73-1.64s.24-1.19.73-1.64c.48-.45,1.08-.67,1.77-.67s1.25.22,1.72.67c.47.45.71.99.71,1.64s-.24,1.19-.71,1.64c-.47.45-1.04.67-1.72.67s-1.29-.22-1.77-.67Z"/>
        </g>
        <g>
          <path class="cls-4" d="M47.31,187.61c-1.45-.59-2.61-1.48-3.48-2.64-.87-1.17-1.33-2.57-1.38-4.22h6.5c.09.93.42,1.64.96,2.13.55.49,1.26.73,2.14.73s1.62-.21,2.14-.63c.52-.42.79-.99.79-1.73,0-.62-.21-1.13-.63-1.54-.42-.4-.93-.74-1.54-1-.61-.26-1.47-.56-2.59-.89-1.62-.5-2.94-1-3.96-1.5-1.02-.5-1.91-1.24-2.64-2.21-.74-.98-1.11-2.25-1.11-3.82,0-2.33.85-4.16,2.54-5.48,1.69-1.32,3.89-1.98,6.61-1.98s4.99.66,6.68,1.98c1.69,1.32,2.6,3.16,2.71,5.52h-6.61c-.05-.81-.35-1.45-.89-1.91-.55-.46-1.25-.7-2.11-.7-.74,0-1.33.2-1.79.59-.45.39-.68.96-.68,1.7,0,.81.38,1.44,1.14,1.89.76.45,1.95.94,3.57,1.46,1.62.55,2.93,1.07,3.95,1.57,1.01.5,1.89,1.23,2.63,2.18.74.95,1.11,2.18,1.11,3.68s-.36,2.73-1.09,3.89c-.73,1.17-1.78,2.1-3.16,2.79s-3.01,1.04-4.89,1.04-3.48-.3-4.93-.89Z"/>
          <path class="cls-4" d="M66.86,172.86c.77-1.55,1.83-2.74,3.16-3.57,1.33-.83,2.82-1.25,4.47-1.25,1.4,0,2.64.29,3.7.86,1.06.57,1.88,1.32,2.45,2.25v-2.82h6.11v19.93h-6.11v-2.82c-.59.93-1.42,1.68-2.48,2.25-1.06.57-2.29.86-3.7.86-1.62,0-3.1-.42-4.43-1.27-1.33-.84-2.39-2.05-3.16-3.61-.77-1.56-1.16-3.36-1.16-5.41s.39-3.85,1.16-5.39ZM79.37,174.68c-.85-.88-1.88-1.32-3.09-1.32s-2.25.43-3.09,1.3c-.85.87-1.27,2.07-1.27,3.59s.42,2.73,1.27,3.63,1.88,1.34,3.09,1.34,2.24-.44,3.09-1.32c.85-.88,1.27-2.08,1.27-3.61s-.42-2.73-1.27-3.61Z"/>
          <path class="cls-4" d="M102.96,173.4h-3.29v14.86h-6.11v-14.86h-2.21v-5.07h2.21v-.57c0-2.45.7-4.32,2.11-5.59,1.4-1.27,3.46-1.91,6.18-1.91.45,0,.79.01,1,.04v5.18c-1.17-.07-1.99.1-2.47.5-.48.41-.71,1.13-.71,2.18v.18h3.29v5.07Z"/>
          <path class="cls-4" d="M126.28,179.75h-13.82c.09,1.24.49,2.18,1.2,2.84.7.66,1.56.98,2.59.98,1.52,0,2.58-.64,3.18-1.93h6.5c-.33,1.31-.93,2.49-1.8,3.54-.87,1.05-1.96,1.87-3.27,2.46-1.31.6-2.77.89-4.39.89-1.95,0-3.69-.42-5.21-1.25-1.52-.83-2.71-2.02-3.57-3.57-.86-1.55-1.29-3.36-1.29-5.43s.42-3.88,1.27-5.43c.85-1.55,2.03-2.74,3.55-3.57,1.52-.83,3.27-1.25,5.25-1.25s3.64.41,5.14,1.21c1.5.81,2.67,1.96,3.52,3.46.84,1.5,1.27,3.25,1.27,5.25,0,.57-.04,1.17-.11,1.79ZM120.14,176.36c0-1.05-.36-1.88-1.07-2.5-.71-.62-1.61-.93-2.68-.93s-1.89.3-2.59.89c-.7.6-1.14,1.44-1.3,2.54h7.64Z"/>
        </g>
      </g>
    </g>
    <g id="Black">
      <g>
        <g>
          <path class="cls-3" d="M111.81,105.16c-.51,0-1.01-.17-1.43-.52-.96-.8-1.1-2.22-.31-3.19,17.05-20.75,20.75-46.77,17.88-57.82-.14-.53-.57-.97-1.13-1.14-23.77-7.07-30.67-11.56-34.78-14.24-2.68-1.74-3.48-2.27-7.65-2.27-3.27,0-4.49.9-7.18,2.88-2.04,1.5-4.83,3.56-9.54,5.82-1.13.54-2.47.06-3.01-1.07-.54-1.13-.06-2.48,1.06-3.02,4.32-2.07,6.81-3.91,8.81-5.38,2.85-2.1,5.11-3.76,9.85-3.76,5.28,0,6.91.92,10.11,3,3.66,2.38,10.47,6.82,33.61,13.7,2.07.62,3.68,2.28,4.22,4.34,3.2,12.31-.51,39.63-18.76,61.84-.45.54-1.09.82-1.74.82Z"/>
          <path class="cls-3" d="M84.67,126.51c-1.04,0-2.08-.24-3.04-.73-45.38-23.08-47.11-68.54-44.14-82.65.51-2.43,2.41-4.31,4.84-4.8,5.33-1.07,10.87-2.27,15.21-3.81,1.17-.42,2.46.2,2.88,1.38.42,1.18-.2,2.47-1.38,2.89-4.61,1.64-10.33,2.88-15.83,3.98-.66.13-1.17.64-1.31,1.29-2.79,13.22-1.09,55.87,41.77,77.67.63.32,1.38.32,2,0,8.05-4.26,11.78-7.02,18.16-12.51.95-.81,2.32-.86,3.19.03.87.89.91,2.38-.03,3.2-6.2,5.42-10.04,7.87-19.22,13.29-.94.56-2.04.77-3.11.77Z"/>
          <path class="cls-3" d="M85.06,114.71c-1.01,0-2.02-.25-2.93-.75-3.78-2.08-5.78-4.63-5.86-4.74-.76-.99-.58-2.41.4-3.18.98-.76,2.4-.59,3.17.4,0,0,1.55,1.93,4.46,3.54.47.26,1.06.3,1.54,0,21.33-13.05,32.69-40.69,32.34-57.92-.01-.73-.49-1.35-1.2-1.54-7.34-2.05-24.79-9.57-31.46-12.85-.48-.24-1.04-.22-1.52.04-6.94,3.77-21.73,10.71-31.83,13.31-.72.18-1.2.85-1.18,1.63.6,18.8,6.79,30.46,11.36,36.47,0-5.13-.07-24.73-.07-24.73-.17-7.93,8.34-16.85,22.4-17.42,9.07-.36,15.07,4.06,17.84,6.73,3.43,3.31,5.48,7.28,5.48,10.63,0,1.25-1.01,2.26-2.26,2.26s-2.26-1.01-2.26-2.26c0-1.58-1.07-4.45-4.1-7.37-2.26-2.17-7.18-5.77-14.53-5.48-10.97.44-18.2,6.97-18.07,12.79v6.82c0,5.43-.11,15.59-.03,19.83.03,1.71-.37,3.18-1.98,3.77-1.6.6-3.34.13-4.43-1.2-4.89-5.94-13.2-19.14-13.89-40.71-.09-2.91,1.79-5.44,4.57-6.16,10.07-2.59,25.1-9.81,30.8-12.91,1.76-.95,3.87-1,5.65-.12,6.37,3.14,23.7,10.6,30.68,12.55,2.64.74,4.44,3.07,4.5,5.81.43,21.22-13.46,51.22-34.82,62.05-.89.45-1.85.67-2.81.67Z"/>
          <path class="cls-3" d="M84.1,99.16c-1.7,0-3.4-.35-4.97-1.08-3.37-1.57-5.61-4.58-5.86-7.84-.09-1.25.84-2.33,2.08-2.43,1.26-.1,2.33.84,2.42,2.09.12,1.58,1.43,3.22,3.26,4.07,3.03,1.41,7.03.5,8.92-2.05,1.89-2.54,1.41-6.67-.97-8.51-1.14-.88-2.67-1.36-4.3-1.87-1.51-.47-3.06-.96-4.55-1.82-3.34-1.94-5.59-5.48-5.85-9.24-.28-3.96,1.65-7.85,4.93-9.91,3.1-1.95,7.17-2.14,10.63-.49,3.21,1.53,5.69,4.6,7,8.63.39,1.19-.26,2.47-1.45,2.85-1.18.39-2.46-.26-2.84-1.45-.65-2.01-1.99-4.67-4.65-5.95-2.04-.98-4.51-.88-6.29.24-1.85,1.16-2.98,3.48-2.82,5.75.16,2.25,1.57,4.46,3.61,5.64,1.05.61,2.31,1.01,3.64,1.42,1.93.6,3.92,1.23,5.7,2.6,4.36,3.36,5.22,10.28,1.84,14.82-2.16,2.9-5.81,4.52-9.48,4.52Z"/>
        </g>
        <g>
          <path class="cls-3" d="M33.22,144.06c-1.42,1.26-3.58,1.9-6.49,1.9h-4.79v9.59h-3.25v-22.97h8.05c2.81,0,4.95.63,6.42,1.88,1.47,1.25,2.2,2.87,2.2,4.84s-.71,3.5-2.13,4.76ZM30.73,142.39c.86-.73,1.29-1.76,1.29-3.1,0-2.83-1.76-4.25-5.29-4.25h-4.79v8.44h4.79c1.81,0,3.15-.36,4-1.09Z"/>
          <path class="cls-3" d="M46.16,138.01c1.06-.57,2.35-.86,3.88-.86v3.1h-.86c-3.65,0-5.47,1.82-5.47,5.47v9.82h-3.25v-18.06h3.25v2.93c.57-1.03,1.39-1.83,2.45-2.41Z"/>
          <path class="cls-3" d="M57.4,137.48v18.06h-3.25v-18.06h3.25Z"/>
          <path class="cls-3" d="M70.59,152.77l6.08-15.29h3.47l-7.69,18.06h-3.79l-7.69-18.06h3.5l6.11,15.29Z"/>
          <path class="cls-3" d="M84.43,141.59c.81-1.39,1.92-2.48,3.34-3.25,1.42-.77,3-1.15,4.74-1.15s3.2.34,4.47,1.02c1.26.68,2.2,1.54,2.82,2.57v-3.3h3.29v18.06h-3.29v-3.36c-.64,1.05-1.6,1.93-2.88,2.62s-2.76,1.04-4.45,1.04-3.31-.4-4.72-1.19c-1.41-.79-2.51-1.9-3.32-3.33-.81-1.43-1.22-3.05-1.22-4.88s.4-3.47,1.22-4.86ZM98.91,142.92c-.6-1.01-1.4-1.79-2.41-2.32s-2.13-.81-3.34-.81-2.32.26-3.32.79c-1,.53-1.8,1.3-2.4,2.31-.6,1.01-.89,2.2-.89,3.56s.3,2.59.89,3.61c.6,1.02,1.4,1.8,2.4,2.34,1,.54,2.11.81,3.32.81s2.33-.27,3.34-.81c1.01-.54,1.82-1.32,2.41-2.34.6-1.02.89-2.21.89-3.58s-.3-2.55-.89-3.56Z"/>
          <path class="cls-3" d="M109.67,141.59c.81-1.39,1.94-2.48,3.38-3.25,1.44-.77,3.09-1.15,4.95-1.15,2.41,0,4.39.54,5.95,1.61,1.56,1.08,2.59,2.57,3.09,4.48h-3.5c-.33-1.1-.98-1.97-1.95-2.6-.97-.64-2.16-.96-3.59-.96-1.86,0-3.36.59-4.5,1.76-1.14,1.18-1.72,2.84-1.72,4.99s.57,3.86,1.72,5.04c1.14,1.19,2.65,1.78,4.5,1.78,1.43,0,2.62-.31,3.58-.92.95-.62,1.61-1.49,1.97-2.64h3.5c-.52,1.85-1.57,3.32-3.15,4.43-1.57,1.11-3.54,1.66-5.9,1.66-1.86,0-3.51-.38-4.95-1.15-1.44-.77-2.57-1.86-3.38-3.26-.81-1.41-1.22-3.05-1.22-4.94s.41-3.5,1.22-4.89Z"/>
          <path class="cls-3" d="M149.32,137.02l-11.8,26.56h-3.36l3.86-8.7-7.9-17.86h3.61l6.15,14.63,6.08-14.63h3.36Z"/>
          <path class="cls-3" d="M54.06,134.5c-.48-.45-.73-.99-.73-1.64s.24-1.19.73-1.64c.48-.45,1.08-.67,1.77-.67s1.25.22,1.72.67c.47.45.71.99.71,1.64s-.24,1.19-.71,1.64c-.47.45-1.04.67-1.72.67s-1.29-.22-1.77-.67Z"/>
        </g>
        <g>
          <path class="cls-3" d="M47.31,187.61c-1.45-.59-2.61-1.48-3.48-2.64-.87-1.17-1.33-2.57-1.38-4.22h6.5c.09.93.42,1.64.96,2.13.55.49,1.26.73,2.14.73s1.62-.21,2.14-.63c.52-.42.79-.99.79-1.73,0-.62-.21-1.13-.63-1.54-.42-.4-.93-.74-1.54-1-.61-.26-1.47-.56-2.59-.89-1.62-.5-2.94-1-3.96-1.5-1.02-.5-1.91-1.24-2.64-2.21-.74-.98-1.11-2.25-1.11-3.82,0-2.33.85-4.16,2.54-5.48,1.69-1.32,3.89-1.98,6.61-1.98s4.99.66,6.68,1.98c1.69,1.32,2.6,3.16,2.71,5.52h-6.61c-.05-.81-.35-1.45-.89-1.91-.55-.46-1.25-.7-2.11-.7-.74,0-1.33.2-1.79.59-.45.39-.68.96-.68,1.7,0,.81.38,1.44,1.14,1.89.76.45,1.95.94,3.57,1.46,1.62.55,2.93,1.07,3.95,1.57,1.01.5,1.89,1.23,2.63,2.18.74.95,1.11,2.18,1.11,3.68s-.36,2.73-1.09,3.89c-.73,1.17-1.78,2.1-3.16,2.79s-3.01,1.04-4.89,1.04-3.48-.3-4.93-.89Z"/>
          <path class="cls-3" d="M66.86,172.86c.77-1.55,1.83-2.74,3.16-3.57,1.33-.83,2.82-1.25,4.47-1.25,1.4,0,2.64.29,3.7.86,1.06.57,1.88,1.32,2.45,2.25v-2.82h6.11v19.93h-6.11v-2.82c-.59.93-1.42,1.68-2.48,2.25-1.06.57-2.29.86-3.7.86-1.62,0-3.1-.42-4.43-1.27-1.33-.84-2.39-2.05-3.16-3.61-.77-1.56-1.16-3.36-1.16-5.41s.39-3.85,1.16-5.39ZM79.37,174.68c-.85-.88-1.88-1.32-3.09-1.32s-2.25.43-3.09,1.3c-.85.87-1.27,2.07-1.27,3.59s.42,2.73,1.27,3.63,1.88,1.34,3.09,1.34,2.24-.44,3.09-1.32c.85-.88,1.27-2.08,1.27-3.61s-.42-2.73-1.27-3.61Z"/>
          <path class="cls-3" d="M102.96,173.4h-3.29v14.86h-6.11v-14.86h-2.21v-5.07h2.21v-.57c0-2.45.7-4.32,2.11-5.59,1.4-1.27,3.46-1.91,6.18-1.91.45,0,.79.01,1,.04v5.18c-1.17-.07-1.99.1-2.47.5-.48.41-.71,1.13-.71,2.18v.18h3.29v5.07Z"/>
          <path class="cls-3" d="M126.28,179.75h-13.82c.09,1.24.49,2.18,1.2,2.84.7.66,1.56.98,2.59.98,1.52,0,2.58-.64,3.18-1.93h6.5c-.33,1.31-.93,2.49-1.8,3.54-.87,1.05-1.96,1.87-3.27,2.46-1.31.6-2.77.89-4.39.89-1.95,0-3.69-.42-5.21-1.25-1.52-.83-2.71-2.02-3.57-3.57-.86-1.55-1.29-3.36-1.29-5.43s.42-3.88,1.27-5.43c.85-1.55,2.03-2.74,3.55-3.57,1.52-.83,3.27-1.25,5.25-1.25s3.64.41,5.14,1.21c1.5.81,2.67,1.96,3.52,3.46.84,1.5,1.27,3.25,1.27,5.25,0,.57-.04,1.17-.11,1.79ZM120.14,176.36c0-1.05-.36-1.88-1.07-2.5-.71-.62-1.61-.93-2.68-.93s-1.89.3-2.59.89c-.7.6-1.14,1.44-1.3,2.54h7.64Z"/>
        </g>
      </g>
    </g>
  </g>
</svg>